{"title":"Sairat 2016 Marathi 1CD DVDRip x265 AAC HEVC [TMB]","uid":15780184,"size":744898460,"categoryP":"video","categoryS":"movies","magnet":"?xt=urn:btih:a9dec0ee9621c967a260c87bef4a01f11832a894&amp;dn=Sairat+2016+Marathi+1CD+DVDRip+x265+AAC+HEVC+%5BTMB%5D&amp;tr=udp%3A%2F%2Ftracker.leechers-paradise.org%3A6969&amp;tr=udp%3A%2F%2Fzer0day.ch%3A1337&amp;tr=udp%3A%2F%2Fopen.demonii.com%3A1337&amp;tr=udp%3A%2F%2Ftracker.coppersurfer.tk%3A6969&amp;tr=udp%3A%2F%2Fexodus.desync.com%3A6969","seeders":2,"leechers":1,"uploader":"Manoj_vb","files":2,"time":1473284000,"description":"http://i1306.photobucket.com/albums/s570/zyx55e/44_zpsc46e809d.gif\r\n \nhttp://s25.postimg.org/qw980xywv/Sairat_Aattach_Baya_Ka_Baavarala_Song_Promo_1200.jpg\r\n \nhttps://postimg.org/image/z1a0515h7/\r\n \nhttps://postimg.org/image/4xvhd327v/\r\n \nhttps://postimg.org/image/f9cfjhjaz/\r\n \nhttps://postimg.org/image/rchr71ud7/\r\n \nhttps://postimg.org/image/pyq4bqv3v/\r\n \nhttps://postimg.org/image/u94s7c06z/\r\n \nhttps://postimg.org/image/8nzpjq3gb/\r\n \nhttps://postimg.org/image/xvaljz6kb/\r\n \nhttps://postimg.org/image/h8t1awdmj/\r\n \nhttps://postimg.org/image/6ahrspp17/\r\n \nhttp://i1306.photobucket.com/albums/s570/zyx55e/oie_11162011MOJeDGQI_zpsc25b2b81.gif\r\n\r\nGeneral\r\nComplete name               : Sairat 2016 1CD DVDRip x265 AAC HEVC [TMB].mp4\r\nFormat                      : MPEG-4\r\nFormat profile              : Base Media / Version 2\r\nCodec ID                    : mp42 (isom/iso2/mp41)\r\nFile size                   : 706 MiB\r\nDuration                    : 2 h 53 min\r\nOverall bit rate mode       : Variable\r\nOverall bit rate            : 568 kb/s\r\n\r\nVideo\r\nFormat                      : HEVC\r\nFormat/Info                 : High Efficiency Video Coding\r\nFormat profile              :   @Main\r\nCodec ID                    : hev1\r\nCodec ID/Info               : High Efficiency Video Coding\r\nDuration                    : 2 h 53 min\r\nBit rate                    : 402 kb/s\r\nWidth                       : 720 pixels\r\nHeight                      : 360 pixels\r\nDisplay aspect ratio        : 2.40:1\r\nFrame rate mode             : Variable\r\nFrame rate                  : 23.976 (23976/1000) FPS\r\nMinimum frame rate          : 11.417 FPS\r\nMaximum frame rate          : 29.970 FPS\r\nOriginal frame rate         : 23.976 (24000/1001) FPS\r\nColor space                 : YUV\r\nChroma subsampling          : 4:2:0\r\nBit depth                   : 8 bits\r\nBits/(Pixel*Frame)          : 0.065\r\nStream size                 : 500 MiB (71%)\r\nWriting library             : x265 1.5:[Windows][GCC 4.9.0][64 bit]\r\n\r\nAudio\r\nFormat                      : AAC\r\nFormat/Info                 : Advanced Audio Codec\r\nFormat profile              : LC\r\nCodec ID                    : 40\r\nDuration                    : 2 h 53 min\r\nBit rate mode               : Variable\r\nBit rate                    : 159 kb/s\r\nChannel(s)                  : 2 channels\r\nChannel positions           : Front: L R\r\nSampling rate               : 48.0 kHz\r\nFrame rate                  : 46.875 FPS (1024 spf)\r\nCompression mode            : Lossy\r\nStream size                 : 197 MiB (28%)\r\nLanguage                    : Marathi\r\n\r\nRipper : Manojvb\r\n\r\nSource :   \r\n\r\nSample in Torrent...\r\n\r\nSeeding 24x7... Extreme Seeding...\r\n\r\n \nhttp://i1306.photobucket.com/albums/s570/zyx55e/oie_1117625zVIGKvnK_zpsc8b6e055.gif","torrent":{"xt":"urn:btih:a9dec0ee9621c967a260c87bef4a01f11832a894","amp;dn":"Sairat+2016+Marathi+1CD+DVDRip+x265+AAC+HEVC+%5BTMB%5D","amp;tr":["udp%3A%2F%2Ftracker.leechers-paradise.org%3A6969","udp%3A%2F%2Fzer0day.ch%3A1337","udp%3A%2F%2Fopen.demonii.com%3A1337","udp%3A%2F%2Ftracker.coppersurfer.tk%3A6969","udp%3A%2F%2Fexodus.desync.com%3A6969"],"infoHash":"a9dec0ee9621c967a260c87bef4a01f11832a894","infoHashBuffer":{"type":"Buffer","data":[169,222,192,238,150,33,201,103,162,96,200,123,239,74,1,241,24,50,168,148]},"announce":[],"urlList":[]}}